<svg width="748" height="748" viewBox="0 0 748 748" fill="none" xmlns="http://www.w3.org/2000/svg">
<circle cx="374" cy="374" r="374" fill="#FAF0E6"/>
<path d="M630 376C630 503.765 536.261 609.685 413.893 628.907V450.496H473.392L484.72 376.683H413.893V328.789C413.893 308.587 423.792 288.917 455.493 288.917H487.685V226.069C487.685 226.069 458.459 221.077 430.533 221.077C372.208 221.077 334.107 256.427 334.107 320.405V376.661H269.275V450.475H334.107V628.885C211.76 609.643 118 503.744 118 376C118 234.624 232.624 120 374 120C515.376 120 630 234.603 630 376Z" fill="#341D00"/>
</svg>
