<svg width="748" height="748" viewBox="0 0 748 748" fill="none" xmlns="http://www.w3.org/2000/svg">
<circle cx="374" cy="374" r="374" fill="#FAF0E6"/>
<path d="M374 166.123C442.352 166.123 450.459 166.379 477.445 167.616C505.349 168.896 534.085 175.253 554.416 195.584C574.939 216.107 581.104 244.565 582.384 272.555C583.621 299.541 583.877 307.648 583.877 376C583.877 444.352 583.621 452.459 582.384 479.445C581.125 507.2 574.619 536.213 554.416 556.416C533.893 576.939 505.456 583.104 477.445 584.384C450.459 585.621 442.352 585.877 374 585.877C305.648 585.877 297.541 585.621 270.555 584.384C243.013 583.125 213.616 576.469 193.584 556.416C173.168 536 166.896 507.264 165.616 479.445C164.379 452.459 164.123 444.352 164.123 376C164.123 307.648 164.379 299.541 165.616 272.555C166.875 244.907 173.445 215.723 193.584 195.584C214.064 175.104 242.629 168.896 270.555 167.616C297.541 166.379 305.648 166.123 374 166.123ZM374 120C304.475 120 295.749 120.299 268.443 121.536C228.869 123.349 189.573 134.357 160.965 162.965C132.251 191.68 121.349 230.891 119.536 270.443C118.299 297.749 118 306.475 118 376C118 445.525 118.299 454.251 119.536 481.557C121.349 521.088 132.4 560.491 160.965 589.035C189.659 617.728 228.933 628.651 268.443 630.464C295.749 631.701 304.475 632 374 632C443.525 632 452.251 631.701 479.557 630.464C519.109 628.651 558.448 617.621 587.035 589.035C615.771 560.299 626.651 521.109 628.464 481.557C629.701 454.251 630 445.525 630 376C630 306.475 629.701 297.749 628.464 270.443C626.651 230.869 615.621 191.552 587.035 162.965C558.384 134.315 519.003 123.328 479.557 121.536C452.251 120.299 443.525 120 374 120Z" fill="#341D00"/>
<path d="M374 244.544C301.403 244.544 242.544 303.403 242.544 376C242.544 448.597 301.403 507.456 374 507.456C446.597 507.456 505.456 448.597 505.456 376C505.456 303.403 446.597 244.544 374 244.544ZM374 461.333C326.875 461.333 288.667 423.125 288.667 376C288.667 328.875 326.875 290.667 374 290.667C421.125 290.667 459.333 328.875 459.333 376C459.333 423.125 421.125 461.333 374 461.333Z" fill="#341D00"/>
<path d="M510.661 270.059C527.628 270.059 541.381 256.305 541.381 239.339C541.381 222.372 527.628 208.619 510.661 208.619C493.695 208.619 479.941 222.372 479.941 239.339C479.941 256.305 493.695 270.059 510.661 270.059Z" fill="#341D00"/>
</svg>
