<svg width="379" height="182" viewBox="0 0 379 182" fill="none" xmlns="http://www.w3.org/2000/svg">
<path d="M57.6575 174.176C49.3802 174.176 41.9135 172.469 35.2575 169.056C28.6015 165.643 23.3108 160.608 19.3855 153.952C15.5455 147.296 13.6255 139.189 13.6255 129.632C13.6255 122.464 14.7775 116.107 17.0815 110.56C19.4708 105.013 22.7135 100.363 26.8095 96.608C30.9908 92.768 35.7695 89.9093 41.1455 88.032C46.5215 86.0693 52.2388 85.088 58.2975 85.088C62.9908 85.088 67.3855 85.6427 71.4815 86.752C75.5775 87.776 79.5028 89.312 83.2575 91.36L83.7695 108.128H80.3135L74.9375 98.016C74.0842 96.3093 73.1455 94.7733 72.1215 93.408C71.1828 92.0427 69.9455 91.0613 68.4095 90.464C66.2762 89.44 63.7588 88.928 60.8575 88.928C55.8228 88.928 51.2148 90.208 47.0335 92.768C42.9375 95.328 39.6522 99.5947 37.1775 105.568C34.7028 111.456 33.4655 119.52 33.4655 129.76C33.4655 139.915 34.6175 147.979 36.9215 153.952C39.3108 159.925 42.5108 164.192 46.5215 166.752C50.5322 169.227 55.0548 170.464 60.0895 170.464C62.3935 170.464 64.2708 170.293 65.7215 169.952C67.1722 169.611 68.6228 169.141 70.0735 168.544C71.7802 167.861 73.1028 166.88 74.0415 165.6C74.9802 164.235 75.7908 162.699 76.4735 160.992L81.3375 149.344H84.7935L84.2815 167.776C80.6122 169.824 76.5588 171.403 72.1215 172.512C67.6842 173.621 62.8628 174.176 57.6575 174.176Z" fill="white"/>
<path d="M159.566 172V169.568L161.486 169.056C164.899 168.117 166.649 166.027 166.734 162.784C166.734 159.883 166.734 156.981 166.734 154.08C166.819 151.093 166.862 148.107 166.862 145.12V114.528H159.566V111.712L162.382 111.2C164.089 110.944 165.326 110.347 166.094 109.408C166.862 108.384 167.417 106.976 167.758 105.184C168.611 101.856 169.849 98.9547 171.47 96.48C173.091 93.92 175.011 91.5307 177.23 89.312C180.387 86.24 183.758 84.1067 187.342 82.912C190.926 81.7173 194.425 81.12 197.838 81.12C201.166 81.12 204.195 81.8027 206.926 83.168C209.742 84.5333 211.15 86.752 211.15 89.824C211.15 92.128 210.467 93.92 209.102 95.2C207.822 96.48 205.945 97.12 203.47 97.12C199.459 97.12 196.003 94.816 193.102 90.208L191.566 88.416C190.542 87.136 189.518 86.6667 188.494 87.008C187.47 87.264 186.745 88.0747 186.318 89.44C185.55 92.1707 184.995 95.3707 184.654 99.04C184.313 102.624 184.099 106.464 184.014 110.56H206.03C207.737 110.56 208.974 110.091 209.742 109.152C210.51 108.128 211.107 106.805 211.534 105.184C212.387 101.856 213.582 98.9547 215.118 96.48C216.739 93.92 218.659 91.5307 220.878 89.312C224.035 86.24 227.406 84.1067 230.99 82.912C234.659 81.7173 238.201 81.12 241.614 81.12C244.942 81.12 247.971 81.8027 250.702 83.168C253.433 84.5333 254.798 86.752 254.798 89.824C254.798 92.128 254.158 93.92 252.878 95.2C251.598 96.48 249.678 97.12 247.118 97.12C243.193 97.12 239.779 94.816 236.878 90.208L235.342 88.416C234.233 87.136 233.166 86.6667 232.142 87.008C231.203 87.264 230.478 88.0747 229.966 89.44C229.283 92.1707 228.729 95.3707 228.302 99.04C227.961 102.624 227.79 106.464 227.79 110.56H242.51V114.528H227.79V145.12C227.79 148.021 227.79 150.923 227.79 153.824C227.79 156.725 227.79 159.584 227.79 162.4C227.875 165.728 229.582 167.819 232.91 168.672L236.238 169.568V172H203.214V169.568L205.134 169.056C208.633 168.117 210.382 166.027 210.382 162.784C210.382 159.883 210.382 156.981 210.382 154.08C210.467 151.093 210.51 148.107 210.51 145.12V114.528H184.014V145.12C184.014 148.021 184.014 150.923 184.014 153.824C184.099 156.725 184.142 159.584 184.142 162.4C184.227 165.728 185.934 167.819 189.262 168.672L192.59 169.568V172H159.566ZM277.188 108.64C282.564 108.64 287.172 109.749 291.012 111.968C294.852 114.187 297.796 117.259 299.844 121.184C301.977 125.024 303.044 129.461 303.044 134.496C303.044 135.605 303.001 136.672 302.916 137.696C302.831 138.635 302.66 139.531 302.404 140.384H263.876C263.961 149.173 265.583 155.488 268.74 159.328C271.983 163.168 276.676 165.088 282.82 165.088C287.087 165.088 290.543 164.405 293.188 163.04C295.833 161.589 298.265 159.584 300.484 157.024L302.532 158.944C299.972 163.637 296.473 167.307 292.036 169.952C287.684 172.512 282.479 173.792 276.42 173.792C270.361 173.792 265.028 172.512 260.42 169.952C255.812 167.392 252.185 163.723 249.54 158.944C246.98 154.08 245.7 148.277 245.7 141.536C245.7 134.539 247.193 128.608 250.18 123.744C253.252 118.88 257.177 115.168 261.956 112.608C266.82 109.963 271.897 108.64 277.188 108.64ZM276.548 112.352C274.073 112.352 271.897 113.077 270.02 114.528C268.228 115.893 266.777 118.368 265.668 121.952C264.644 125.451 264.047 130.4 263.876 136.8H286.788C287.727 128.181 287.385 121.952 285.764 118.112C284.143 114.272 281.071 112.352 276.548 112.352ZM341.563 108.64C346.939 108.64 351.547 109.749 355.387 111.968C359.227 114.187 362.171 117.259 364.219 121.184C366.352 125.024 367.419 129.461 367.419 134.496C367.419 135.605 367.376 136.672 367.291 137.696C367.206 138.635 367.035 139.531 366.779 140.384H328.251C328.336 149.173 329.958 155.488 333.115 159.328C336.358 163.168 341.051 165.088 347.195 165.088C351.462 165.088 354.918 164.405 357.563 163.04C360.208 161.589 362.64 159.584 364.859 157.024L366.907 158.944C364.347 163.637 360.848 167.307 356.411 169.952C352.059 172.512 346.854 173.792 340.795 173.792C334.736 173.792 329.403 172.512 324.795 169.952C320.187 167.392 316.56 163.723 313.915 158.944C311.355 154.08 310.075 148.277 310.075 141.536C310.075 134.539 311.568 128.608 314.555 123.744C317.627 118.88 321.552 115.168 326.331 112.608C331.195 109.963 336.272 108.64 341.563 108.64ZM340.923 112.352C338.448 112.352 336.272 113.077 334.395 114.528C332.603 115.893 331.152 118.368 330.043 121.952C329.019 125.451 328.422 130.4 328.251 136.8H351.163C352.102 128.181 351.76 121.952 350.139 118.112C348.518 114.272 345.446 112.352 340.923 112.352Z" fill="white"/>
<path d="M301.5 50.5C282.3 58.9 268.5 75 264 82C262.999 69.9889 280.5 52.35 291.5 48.5C301.5 45 315 38 325 31C325.167 34 320.7 42.1 301.5 50.5Z" fill="#63A7D4"/>
<path d="M286.505 38.5C305.705 30.1 319.505 14 324.005 7C325.006 19.0111 307.505 36.65 296.505 40.5C286.505 44 273.005 51 263.005 58C262.838 55 267.305 46.9 286.505 38.5Z" fill="#63A7D4"/>
<path d="M328 62C315.997 72.3799 298.051 78.2859 287.5 85C286.437 80.2143 302.007 73.4701 316 64C328.322 55.6605 339.033 44.758 341.5 37.5C338.5 50.5 336.854 54.3434 328 62Z" fill="#63A7D4"/>
<path d="M304 64C282.8 72.4 269.5 86.8333 265.5 93C265.5 77.5 287 64 301 56.5C315 49 326.5 42.5 339.5 23C339.5 30 330.5 53.5 304 64Z" fill="#63A7D4"/>
<path d="M67.104 48.08V46.288H85.28V48.08L81.76 48.528C81.0773 48.6133 80.672 48.8053 80.544 49.104C80.416 49.36 80.352 50.2133 80.352 51.664V66H78.624C77.472 64.8053 76.192 63.8027 74.784 62.992C73.632 64.016 72.2667 64.8907 70.688 65.616C69.1093 66.2987 67.1893 66.64 64.928 66.64C61.4293 66.64 58.4213 65.7653 55.904 64.016C53.4293 62.224 51.5307 59.7707 50.208 56.656C48.8853 53.4987 48.224 49.9147 48.224 45.904V41.872C48.224 37.9893 48.8853 34.5547 50.208 31.568C51.5307 28.5387 53.472 26.1707 56.032 24.464C58.592 22.7147 61.728 21.84 65.44 21.84C68.9387 21.84 71.8187 22.48 74.08 23.76C76.384 24.9973 78.0693 26.6613 79.136 28.752C80.2027 30.8 80.608 33.04 80.352 35.472L72.864 37.328C73.3333 33.0613 72.864 29.7973 71.456 27.536C70.048 25.232 67.9573 24.08 65.184 24.08C59.3387 24.08 56.416 29.264 56.416 39.632V48.784C56.416 59.1947 59.5093 64.4 65.696 64.4C67.0613 64.4 68.4267 64.1227 69.792 63.568C71.2 63.0133 72.3733 62.2027 73.312 61.136V51.664C73.312 50.2133 73.248 49.3387 73.12 49.04C72.992 48.7413 72.5867 48.5707 71.904 48.528L67.104 48.08Z" fill="white"/>
<path d="M197.912 42.192V46.224C197.912 52.7947 196.44 57.8507 193.496 61.392C190.595 64.8907 186.285 66.64 180.568 66.64C174.851 66.64 170.52 64.8907 167.576 61.392C164.675 57.8507 163.224 52.7947 163.224 46.224V42.192C163.224 35.6213 164.675 30.5867 167.576 27.088C170.52 23.5893 174.851 21.84 180.568 21.84C186.285 21.84 190.595 23.5893 193.496 27.088C196.44 30.5867 197.912 35.6213 197.912 42.192ZM189.72 38.992C189.72 35.2373 189.4 32.2933 188.76 30.16C188.12 27.984 187.117 26.4267 185.752 25.488C184.429 24.5493 182.701 24.08 180.568 24.08C178.477 24.08 176.749 24.5493 175.384 25.488C174.019 26.4267 173.016 27.984 172.376 30.16C171.736 32.2933 171.416 35.2373 171.416 38.992V49.424C171.416 53.136 171.736 56.08 172.376 58.256C173.016 60.432 174.019 62.0107 175.384 62.992C176.749 63.9307 178.477 64.4 180.568 64.4C182.701 64.4 184.429 63.9307 185.752 62.992C187.117 62.0107 188.12 60.432 188.76 58.256C189.4 56.08 189.72 53.136 189.72 49.424V38.992ZM204.877 24.272V22.48H223.757C229.218 22.48 233.4 24.08 236.301 27.28C239.245 30.48 240.717 35.4507 240.717 42.192V46.224C240.717 52.9653 239.245 57.9573 236.301 61.2C233.4 64.4 229.218 66 223.757 66H204.877V64.208L208.397 63.76C209.08 63.6747 209.485 63.504 209.613 63.248C209.741 62.9493 209.805 62.0747 209.805 60.624V27.856C209.805 26.4053 209.741 25.552 209.613 25.296C209.485 24.9973 209.08 24.8053 208.397 24.72L204.877 24.272ZM223.437 24.72H217.485V63.76H223.437C225.613 63.76 227.362 63.3973 228.685 62.672C230.008 61.904 230.968 60.496 231.565 58.448C232.205 56.3573 232.525 53.3493 232.525 49.424V38.992C232.525 35.0667 232.205 32.08 231.565 30.032C230.968 27.984 230.008 26.5973 228.685 25.872C227.362 25.104 225.613 24.72 223.437 24.72Z" fill="white"/>
<path d="M129 14H127C119.268 14 113 20.268 113 28V162C113 169.732 119.268 176 127 176H129C136.732 176 143 169.732 143 162V28C143 20.268 136.732 14 129 14Z" stroke="#F69B42" stroke-width="12"/>
<path d="M140.828 80.0001L110 105.868L115.27 112.148L146.098 86.2803L140.828 80.0001Z" fill="#F69B42"/>
</svg>
