<svg width="379" height="182" viewBox="0 0 379 182" fill="none" xmlns="http://www.w3.org/2000/svg">
<path d="M57.6575 174.176C49.3802 174.176 41.9135 172.469 35.2575 169.056C28.6015 165.643 23.3108 160.608 19.3855 153.952C15.5455 147.296 13.6255 139.189 13.6255 129.632C13.6255 122.464 14.7775 116.107 17.0815 110.56C19.4708 105.013 22.7135 100.363 26.8095 96.608C30.9908 92.768 35.7695 89.9093 41.1455 88.032C46.5215 86.0693 52.2388 85.088 58.2975 85.088C62.9908 85.088 67.3855 85.6427 71.4815 86.752C75.5775 87.776 79.5028 89.312 83.2575 91.36L83.7695 108.128H80.3135L74.9375 98.016C74.0842 96.3093 73.1455 94.7733 72.1215 93.408C71.1828 92.0427 69.9455 91.0613 68.4095 90.464C66.2762 89.44 63.7588 88.928 60.8575 88.928C55.8228 88.928 51.2148 90.208 47.0335 92.768C42.9375 95.328 39.6522 99.5947 37.1775 105.568C34.7028 111.456 33.4655 119.52 33.4655 129.76C33.4655 139.915 34.6175 147.979 36.9215 153.952C39.3108 159.925 42.5108 164.192 46.5215 166.752C50.5322 169.227 55.0548 170.464 60.0895 170.464C62.3935 170.464 64.2708 170.293 65.7215 169.952C67.1722 169.611 68.6228 169.141 70.0735 168.544C71.7802 167.861 73.1028 166.88 74.0415 165.6C74.9802 164.235 75.7908 162.699 76.4735 160.992L81.3375 149.344H84.7935L84.2815 167.776C80.6122 169.824 76.5588 171.403 72.1215 172.512C67.6842 173.621 62.8628 174.176 57.6575 174.176Z" fill="white"/>
<path d="M159.566 172V169.568L161.486 169.056C164.899 168.117 166.649 166.027 166.734 162.784C166.734 159.883 166.734 156.981 166.734 154.08C166.819 151.093 166.862 148.107 166.862 145.12V114.528H159.566V111.712L162.382 111.2C164.089 110.944 165.326 110.347 166.094 109.408C166.862 108.384 167.417 106.976 167.758 105.184C168.611 101.856 169.849 98.9547 171.47 96.48C173.091 93.92 175.011 91.5307 177.23 89.312C180.387 86.24 183.758 84.1067 187.342 82.912C190.926 81.7173 194.425 81.12 197.838 81.12C201.166 81.12 204.195 81.8027 206.926 83.168C209.742 84.5333 211.15 86.752 211.15 89.824C211.15 92.128 210.467 93.92 209.102 95.2C207.822 96.48 205.945 97.12 203.47 97.12C199.459 97.12 196.003 94.816 193.102 90.208L191.566 88.416C190.542 87.136 189.518 86.6667 188.494 87.008C187.47 87.264 186.745 88.0747 186.318 89.44C185.55 92.1707 184.995 95.3707 184.654 99.04C184.313 102.624 184.099 106.464 184.014 110.56H206.03C207.737 110.56 208.974 110.091 209.742 109.152C210.51 108.128 211.107 106.805 211.534 105.184C212.387 101.856 213.582 98.9547 215.118 96.48C216.739 93.92 218.659 91.5307 220.878 89.312C224.035 86.24 227.406 84.1067 230.99 82.912C234.659 81.7173 238.201 81.12 241.614 81.12C244.942 81.12 247.971 81.8027 250.702 83.168C253.433 84.5333 254.798 86.752 254.798 89.824C254.798 92.128 254.158 93.92 252.878 95.2C251.598 96.48 249.678 97.12 247.118 97.12C243.193 97.12 239.779 94.816 236.878 90.208L235.342 88.416C234.233 87.136 233.166 86.6667 232.142 87.008C231.203 87.264 230.478 88.0747 229.966 89.44C229.283 92.1707 228.729 95.3707 228.302 99.04C227.961 102.624 227.79 106.464 227.79 110.56H242.51V114.528H227.79V145.12C227.79 148.021 227.79 150.923 227.79 153.824C227.79 156.725 227.79 159.584 227.79 162.4C227.875 165.728 229.582 167.819 232.91 168.672L236.238 169.568V172H203.214V169.568L205.134 169.056C208.633 168.117 210.382 166.027 210.382 162.784C210.382 159.883 210.382 156.981 210.382 154.08C210.467 151.093 210.51 148.107 210.51 145.12V114.528H184.014V145.12C184.014 148.021 184.014 150.923 184.014 153.824C184.099 156.725 184.142 159.584 184.142 162.4C184.227 165.728 185.934 167.819 189.262 168.672L192.59 169.568V172H159.566ZM277.188 108.64C282.564 108.64 287.172 109.749 291.012 111.968C294.852 114.187 297.796 117.259 299.844 121.184C301.977 125.024 303.044 129.461 303.044 134.496C303.044 135.605 303.001 136.672 302.916 137.696C302.831 138.635 302.66 139.531 302.404 140.384H263.876C263.961 149.173 265.583 155.488 268.74 159.328C271.983 163.168 276.676 165.088 282.82 165.088C287.087 165.088 290.543 164.405 293.188 163.04C295.833 161.589 298.265 159.584 300.484 157.024L302.532 158.944C299.972 163.637 296.473 167.307 292.036 169.952C287.684 172.512 282.479 173.792 276.42 173.792C270.361 173.792 265.028 172.512 260.42 169.952C255.812 167.392 252.185 163.723 249.54 158.944C246.98 154.08 245.7 148.277 245.7 141.536C245.7 134.539 247.193 128.608 250.18 123.744C253.252 118.88 257.177 115.168 261.956 112.608C266.82 109.963 271.897 108.64 277.188 108.64ZM276.548 112.352C274.073 112.352 271.897 113.077 270.02 114.528C268.228 115.893 266.777 118.368 265.668 121.952C264.644 125.451 264.047 130.4 263.876 136.8H286.788C287.727 128.181 287.385 121.952 285.764 118.112C284.143 114.272 281.071 112.352 276.548 112.352ZM341.563 108.64C346.939 108.64 351.547 109.749 355.387 111.968C359.227 114.187 362.171 117.259 364.219 121.184C366.352 125.024 367.419 129.461 367.419 134.496C367.419 135.605 367.376 136.672 367.291 137.696C367.206 138.635 367.035 139.531 366.779 140.384H328.251C328.336 149.173 329.958 155.488 333.115 159.328C336.358 163.168 341.051 165.088 347.195 165.088C351.462 165.088 354.918 164.405 357.563 163.04C360.208 161.589 362.64 159.584 364.859 157.024L366.907 158.944C364.347 163.637 360.848 167.307 356.411 169.952C352.059 172.512 346.854 173.792 340.795 173.792C334.736 173.792 329.403 172.512 324.795 169.952C320.187 167.392 316.56 163.723 313.915 158.944C311.355 154.08 310.075 148.277 310.075 141.536C310.075 134.539 311.568 128.608 314.555 123.744C317.627 118.88 321.552 115.168 326.331 112.608C331.195 109.963 336.272 108.64 341.563 108.64ZM340.923 112.352C338.448 112.352 336.272 113.077 334.395 114.528C332.603 115.893 331.152 118.368 330.043 121.952C329.019 125.451 328.422 130.4 328.251 136.8H351.163C352.102 128.181 351.76 121.952 350.139 118.112C348.518 114.272 345.446 112.352 340.923 112.352Z" fill="white"/>
<path d="M301.5 50.5C282.3 58.9 268.5 75 264 82C262.999 69.9889 280.5 52.35 291.5 48.5C301.5 45 315 38 325 31C325.167 34 320.7 42.1 301.5 50.5Z" fill="#63A7D4"/>
<path d="M328 62C315.997 72.3799 298.051 78.2859 287.5 85C286.437 80.2143 302.007 73.4701 316 64C328.322 55.6605 339.033 44.758 341.5 37.5C338.5 50.5 336.854 54.3434 328 62Z" fill="#63A7D4"/>
<path d="M304 64C282.8 72.4 269.5 86.8333 265.5 93C265.5 77.5 287 64 301 56.5C315 49 326.5 42.5 339.5 23C339.5 30 330.5 53.5 304 64Z" fill="#63A7D4"/>
<path d="M43.9065 66V64.592L45.1865 64.208C45.9972 63.952 46.5518 63.5467 46.8505 62.992C47.1492 62.3947 47.2985 61.6267 47.2985 60.688V29.008C47.2985 28.1547 47.1918 27.472 46.9785 26.96C46.7652 26.4053 46.2318 25.9787 45.3785 25.68L43.9065 25.104V23.696H56.1305L68.1625 54.992L79.4905 23.696H91.9705V25.104L90.9465 25.424C90.1358 25.68 89.5812 26.0853 89.2825 26.64C88.9838 27.152 88.8345 27.8347 88.8345 28.688C88.7918 31.1627 88.7705 33.6373 88.7705 36.112C88.7705 38.544 88.7705 41.0187 88.7705 43.536V46.16C88.7705 48.6347 88.7705 51.1093 88.7705 53.584C88.7705 56.0587 88.7918 58.512 88.8345 60.944C88.8345 61.84 88.9412 62.5227 89.1545 62.992C89.3678 63.4613 89.8798 63.8453 90.6905 64.144L91.9705 64.592V66H76.4185V64.592L77.8265 64.144C78.6372 63.8453 79.1278 63.4613 79.2985 62.992C79.5118 62.48 79.6185 61.7973 79.6185 60.944V47.056L79.7465 29.904L66.6905 66H63.1065L49.3465 30.288L49.6025 44.88V60.752C49.6025 61.6907 49.7305 62.4373 49.9865 62.992C50.2425 63.5467 50.7758 63.9307 51.5865 64.144L52.8665 64.592V66H43.9065Z" fill="white"/>
<path d="M159.753 66V64.656L161.097 64.272C161.951 64.016 162.484 63.6533 162.697 63.184C162.953 62.672 163.081 61.968 163.081 61.072C163.124 58.5973 163.145 56.1227 163.145 53.648C163.145 51.1733 163.145 48.6773 163.145 46.16V43.536C163.145 41.0613 163.145 38.5867 163.145 36.112C163.145 33.6373 163.124 31.1627 163.081 28.688C163.081 27.792 162.975 27.1093 162.761 26.64C162.548 26.128 162.015 25.744 161.161 25.488L159.753 25.04V23.696H177.673C182.665 23.696 186.505 24.656 189.193 26.576C191.924 28.4533 193.289 31.0987 193.289 34.512C193.289 36.3893 192.543 38.288 191.049 40.208C189.599 42.128 187.359 43.6 184.329 44.624L193.033 61.584C193.759 62.992 194.889 63.952 196.425 64.464L197.641 64.72V66H186.313L176.777 46.032H172.169C172.169 49.0613 172.169 51.792 172.169 54.224C172.169 56.656 172.191 58.9387 172.233 61.072C172.233 61.9253 172.361 62.608 172.617 63.12C172.916 63.632 173.471 63.9947 174.281 64.208L175.817 64.656V66H159.753ZM172.169 44.176H175.625C178.655 44.176 180.873 43.408 182.281 41.872C183.689 40.336 184.393 37.9893 184.393 34.832C184.393 31.6747 183.711 29.3493 182.345 27.856C181.023 26.32 178.868 25.552 175.881 25.552H172.233C172.233 27.216 172.212 28.9227 172.169 30.672C172.169 32.3787 172.169 34.32 172.169 36.496C172.169 38.6293 172.169 41.1893 172.169 44.176ZM199.753 66V64.656L201.033 64.208C201.801 63.9947 202.335 63.632 202.633 63.12C202.932 62.5653 203.103 61.8187 203.145 60.88V28.688C203.103 27.792 202.953 27.1093 202.697 26.64C202.441 26.128 201.908 25.744 201.097 25.488L199.753 25.04V23.696H230.217L230.665 33.936H228.873L226.313 28.176C225.972 27.3653 225.588 26.7467 225.161 26.32C224.735 25.8507 224.095 25.616 223.241 25.616H212.361C212.319 28.2613 212.297 30.992 212.297 33.808C212.297 36.5813 212.297 39.7173 212.297 43.216H218.633C219.487 43.216 220.127 43.0027 220.553 42.576C221.023 42.1067 221.449 41.488 221.833 40.72L222.921 38.288H224.329V50.128H222.921L221.769 47.696C221.428 46.928 221.044 46.3093 220.617 45.84C220.191 45.3707 219.551 45.136 218.697 45.136H212.297C212.297 48.208 212.297 50.8533 212.297 53.072C212.297 55.2907 212.297 57.2747 212.297 59.024C212.34 60.7307 212.361 62.416 212.361 64.08H224.649C225.503 64.08 226.164 63.8667 226.633 63.44C227.103 62.9707 227.487 62.3307 227.785 61.52L230.153 55.76H231.945L231.497 66H199.753Z" fill="white"/>
<rect x="113" y="14" width="30" height="162" rx="14" stroke="#F69B42" stroke-width="12"/>
<rect x="110" y="105.868" width="40.2433" height="8.19821" transform="rotate(-40 110 105.868)" fill="#F69B42"/>
</svg>
